<svg version="1" xmlns="http://www.w3.org/2000/svg" width="361.333" height="361.333" viewBox="0 0 271.000000 271.000000"><path d="M113 5.6c-6.3 3.1-14.2 6.9-17.5 8.4-3.3 1.5-13 6.2-21.5 10.3-8.5 4.1-18 8.6-21 10-7.2 3.4-12.7 8.9-15.9 15.7l-2.6 5.5-.1 51.8c-.1 49.4 0 52 1.8 55.7 2.8 5.7 7.4 8.2 15.1 8.2 7.4.1 11.5-1.7 14.9-6.4 2.3-3.2 2.3-3.8 2.5-30.8.7-73.9.6-71.1 2.9-76C75 50.9 80.3 46.4 93 40.3c42.5-20.6 41.2-20.2 49.5-17.2 4.5 1.5 35.8 16.3 46 21.6 5.2 2.8 8.7 6.6 12.2 13.3l2.8 5.5.1 46.5c0 25.6.4 48.1.8 50.1 1.2 6.6 8.4 11.5 16.6 11.2 8.6-.4 12.6-2.7 16-9.2 1.7-3.2 1.8-101.6.1-107.6-1.4-5.4-6.2-12.7-10.2-15.8-3-2.2-20.5-11-39.4-19.7-3.3-1.5-13.6-6.4-22.8-10.9L147.9 0h-23.4L113 5.6z"/><path d="M136 52.7c-26.5 2.8-45.1 22.3-45.2 47.6-.1 8.4.2 10.2 3.2 17.9 2.3 6.3 8 14.4 12.4 17.9l2.7 2.2-5.4 2.2c-6.8 2.7-11 5.7-14.4 10.2-2.3 3-2.5 3.6-1.1 4.4.8.5 5.5 4 10.4 7.7 11.3 8.8 24.6 22 32.3 32.2l5.9 7.9 5.8-7.7c7.6-10.2 22.7-25.1 34.1-33.6 10.4-7.8 10.4-7.6 3.2-14.6-3.6-3.4-10.1-6.8-12.1-6.2-2 .5-.4-1.8 3.1-4.6 8.9-7.2 15.2-20.4 15.7-33.3.7-16.9-6.2-31.2-19.7-41.2-7.3-5.4-22.5-9.8-30.9-9z"/><path d="M84.7 159.3c-.9 2.4 1 4.6 8.8 10.4 13.8 10.3 26.7 22.6 37.7 36 2.8 3.5 5.4 6.3 5.7 6.3.3-.1 2.4-2.4 4.6-5.2 4.2-5.3 22.7-24.4 28-28.8 1.7-1.4 4.8-3.8 7-5.5 2.2-1.6 4.9-3.7 5.9-4.7 1.1-1 2.8-2 3.8-2.4 1.2-.3 1.8-1.5 1.8-3.5v-3l-3.2 2.3c-10 7-27.4 23.5-35.4 33.4-2.1 2.7-4.1 5.1-4.4 5.4-.3.3-2.3 2.9-4.3 5.7l-3.8 5.2-6.1-8.2c-11.2-15-44.8-46.7-46.1-43.4z"/><path d="M84.9 170.7c-.7 7.1-1.1 6.6 7.4 11.1 12.7 6.9 21.8 13.9 34.9 26.9l9.6 9.6 9.4-9.4c9-9.1 24.1-21.3 30.3-24.4 9.6-4.8 11-6.1 11.3-9.8.3-3.9-.7-4.7-2.8-2.2-.7.8-1.8 1.5-2.5 1.5-.8 0-1.5.3-1.7.7-.1.5-2.8 2.6-5.8 4.9-10.1 7.5-26.5 23.4-34 32.9-1.8 2.2-3.6 4-4 4-.5 0-5-4.6-10-10.2-5-5.7-13.1-13.8-18-18.1-9.7-8.5-23.9-18.8-24.1-17.5z"/><path d="M84.8 186.4c-.2 1.1-.1 3.4.2 5 .4 2.5 1.4 3.1 8.4 5.7 13.4 4.9 26.9 13.3 39.1 24.3 2.2 2 4.2 3.6 4.5 3.6.3-.1 3.2-2.5 6.4-5.5 9.9-9.2 24.8-18.2 38.1-22.9l6-2.2.3-4.7c.2-2.6 0-4.7-.3-4.7-1.1 0-9 4.2-14.5 7.8-9.2 5.9-19.1 14-27.9 22.9l-8.3 8.4-6.7-6.8c-3.7-3.7-8.7-8.6-11.1-10.9-5.3-4.8-20.3-15.4-21.8-15.4-.6 0-1.2-.3-1.4-.8-.1-.4-2.6-1.9-5.5-3.3-5.1-2.7-5.1-2.7-5.5-.5z"/><path d="M41.8 189.9c-6 3.1-7.3 6.1-7.2 16.9.1 8.3.5 10.4 2.7 14.8 4.4 8.6 6.4 9.9 37.2 24.4 4.5 2.1 17.1 8.2 28 13.6l20 9.8 12.5.4 12.5.3 15.5-7.4c8.5-4.1 18.9-9 23-11 43.6-20.6 44.4-21.1 49-29.8 2.4-4.6 3-7.7 3.1-16.6.1-12.6-3.7-16.5-16.3-16.8-12.2-.2-17.1 3.3-18.1 13-1.5 13.3-6 19.5-19 25.8-17.7 8.7-40.8 19.6-42.6 20.2-6.5 2-8.6 1.6-22.6-5-28.6-13.5-38.3-18.5-41.3-21-4.6-3.8-8.1-10.3-8.7-16.1-1.6-13.3-4.7-16.5-16.6-16.9-5.7-.1-8.9.3-11.1 1.4z"/></svg>